<?xml version="1.0" encoding="utf-8"?>
<!-- Generator: Adobe Illustrator 23.0.1, SVG Export Plug-In . SVG Version: 6.00 Build 0)  -->
<svg version="1.1" id="Layer_1" xmlns="http://www.w3.org/2000/svg" xmlns:xlink="http://www.w3.org/1999/xlink" x="0px" y="0px"
	 viewBox="0 0 80.14 67.71" style="enable-background:new 0 0 80.14 67.71;" xml:space="preserve">
<style type="text/css">
	.st0{fill:#ED2024;}
</style>
<g>
	<path class="st0" d="M-99.3,15.14c0,0.15,0,0.25,0,0.36c0,5.78,0,11.55,0,17.33c0,1.36-0.44,2.59-1.22,3.68
		c-0.87,1.22-2.03,2.07-3.48,2.48c-1.57,0.45-3.11,0.37-4.61-0.28c-1.23-0.53-2.19-1.39-2.91-2.5c-0.52-0.8-0.85-1.67-0.95-2.63
		c-0.03-0.28-0.05-0.57-0.05-0.85c0-5.75,0-11.5,0-17.24c0-0.11,0-0.21,0-0.34c-0.7,0-1.37,0.02-2.04,0
		c-1.3-0.05-2.46-0.51-3.48-1.31c-0.78-0.61-1.41-1.36-1.83-2.28c-0.3-0.66-0.54-1.35-0.56-2.09c-0.02-0.69,0-1.39,0-2.12
		c-0.55,0-1.04,0.03-1.51-0.01c-0.52-0.05-1.05-0.1-1.53-0.27c-1.56-0.54-2.58-2-2.57-3.57c0.01-2.04-0.01-4.09,0-6.13
		c0.01-1.57,0.79-2.68,2.13-3.42c0.55-0.3,1.18-0.4,1.8-0.42c0.53-0.02,1.06,0,1.61,0c0.01-0.13,0.01-0.24,0.01-0.35
		c0-0.92-0.04-1.84,0.21-2.74c0.27-1.01,0.74-1.91,1.45-2.69c0.87-0.95,1.93-1.6,3.18-1.88c0.5-0.11,1.02-0.18,1.53-0.19
		c6.37-0.01,12.73-0.01,19.1-0.02c0.28,0,0.57-0.12,0.84-0.21c1.91-0.69,3.82-1.4,5.72-2.1c2.01-0.74,4.01-1.49,6.02-2.22
		c1.21-0.44,2.42-0.87,3.63-1.31c2-0.73,4-1.47,6-2.21c1.13-0.42,2.27-0.83,3.4-1.24c0.98-0.36,1.95-0.73,2.93-1.07
		c0.76-0.27,1.57,0.11,1.57,1.05c-0.01,5.72-0.01,11.44-0.01,17.16c0,0.12,0,0.23,0,0.37c0.32,0.1,0.64,0.19,0.96,0.29
		c0.84,0.28,1.56,0.75,2.22,1.34c1.12,1,1.78,2.24,2.07,3.7c0.18,0.87,0.14,1.74-0.04,2.61c-0.22,1.03-0.66,1.95-1.31,2.77
		c-0.53,0.67-1.19,1.2-1.93,1.62c-0.56,0.31-1.16,0.54-1.79,0.67c-0.08,0.02-0.14,0.15-0.18,0.23c-0.02,0.04,0,0.11,0,0.16
		c0,5.75-0.01,11.5,0.01,17.24c0,0.7-0.63,1.36-1.49,1.06c-1.82-0.65-3.63-1.33-5.45-2c-2.07-0.76-4.15-1.52-6.23-2.28
		c-1.31-0.48-2.62-0.95-3.92-1.43c-2.23-0.82-4.45-1.64-6.67-2.45c-1.09-0.4-2.18-0.79-3.28-1.19c-0.93-0.34-1.85-0.68-2.78-1.01
		c-0.14-0.05-0.3-0.07-0.44-0.07c-1.28-0.01-2.56,0-3.85,0C-99.09,15.14-99.18,15.14-99.3,15.14z M-72.86-19.99
		c-0.08,0.02-0.13,0.03-0.18,0.05c-1.36,0.5-2.71,1-4.07,1.5c-1.53,0.56-3.07,1.11-4.6,1.66c-1.55,0.56-3.1,1.14-4.65,1.7
		c-2.3,0.84-4.6,1.68-6.9,2.52c-0.19,0.07-0.27,0.17-0.27,0.39c0.01,8.37,0.01,16.73,0.01,25.1c0,0.04-0.02,0.1,0,0.13
		c0.05,0.09,0.09,0.22,0.17,0.25c0.49,0.2,0.99,0.38,1.49,0.56c1.56,0.58,3.13,1.15,4.7,1.72c1.49,0.54,2.99,1.08,4.48,1.62
		c1.82,0.67,3.64,1.34,5.46,2.01c1.05,0.39,2.1,0.78,3.15,1.16c0.39,0.14,0.79,0.28,1.21,0.43C-72.86,7.21-72.86-6.37-72.86-19.99z
		 M-95.76,12.98c0-8.4,0-16.75,0-25.12c-0.13,0-0.23,0-0.34,0c-5.95,0-11.89,0-17.84,0c-0.31,0-0.62,0.05-0.92,0.1
		c-1.98,0.3-3.41,2.1-3.41,4.14c0.01,5.27,0,10.55,0,15.82c0,0.46,0.01,0.91,0.05,1.37c0.07,0.87,0.43,1.63,1.01,2.27
		c0.88,0.98,2.01,1.41,3.3,1.41c5.94,0.01,11.87,0,17.81,0C-95.98,12.98-95.88,12.98-95.76,12.98z M-101.51,15.16
		c-2.96,0-5.87,0-8.8,0c0,0.14,0,0.26,0,0.39c0,5.69,0,11.39,0,17.08c0,1.47,0.6,2.64,1.74,3.53c0.92,0.72,2,1.02,3.16,0.88
		c1.19-0.15,2.2-0.68,2.95-1.64c0.6-0.77,0.96-1.63,0.96-2.62c0-5.75,0-11.5,0-17.24C-101.51,15.4-101.51,15.29-101.51,15.16z
		 M-67.12-22.09c-0.14,0.04-0.25,0.07-0.36,0.11c-0.97,0.35-1.93,0.72-2.9,1.06c-0.19,0.07-0.26,0.15-0.26,0.36
		c0.01,13.97,0.01,27.94,0,41.91c0,0.24,0.09,0.34,0.3,0.41c0.5,0.17,0.98,0.36,1.48,0.54c0.57,0.21,1.14,0.41,1.73,0.61
		C-67.12,7.91-67.12-7.07-67.12-22.09z M-120.5-4.28c-0.49,0-0.96-0.01-1.43,0c-1.22,0.02-1.94,0.72-1.95,1.89
		c-0.02,1.98,0.01,3.95,0.05,5.93c0.01,0.65,0.38,1.13,0.97,1.37c0.33,0.13,0.7,0.18,1.05,0.21c0.43,0.03,0.87,0.01,1.31,0.01
		C-120.5,1.97-120.5-1.14-120.5-4.28z M-64.89-3.76c0,2.78,0,5.56,0,8.35c1.72-0.43,3.15-2.15,3.13-4.22
		C-61.78-1.76-63.34-3.39-64.89-3.76z"/>
	<path class="st0" d="M-58.18-6.91c-0.04-0.34,0.12-0.61,0.36-0.84c1.39-1.39,2.79-2.79,4.18-4.18c0.34-0.34,0.74-0.44,1.2-0.3
		c0.49,0.15,0.72,0.54,0.75,1c0.01,0.25-0.1,0.57-0.27,0.74c-1.37,1.43-2.77,2.83-4.17,4.23c-0.19,0.19-0.44,0.33-0.68,0.43
		C-57.46-5.58-58.28-6.28-58.18-6.91z"/>
	<path class="st0" d="M-58.39,7.63c0-0.49,0.22-0.84,0.68-1.01c0.43-0.15,0.85-0.1,1.18,0.24c1.44,1.44,2.88,2.88,4.31,4.31
		c0.44,0.44,0.42,1.13,0.02,1.54c-0.44,0.45-1.12,0.49-1.59,0.03c-1.06-1.04-2.11-2.1-3.16-3.15c-0.37-0.37-0.73-0.74-1.1-1.1
		C-58.28,8.25-58.41,7.97-58.39,7.63z"/>
	<path class="st0" d="M-51.17,1.49c-1.02,0-2.04,0-3.06,0c-0.53,0-0.95-0.36-1.04-0.88c-0.09-0.49,0.23-1.07,0.69-1.22
		c0.19-0.06,0.4-0.1,0.6-0.1c1.91-0.01,3.82-0.01,5.72,0c0.36,0,0.69,0.1,0.96,0.37c0.31,0.31,0.33,0.83,0.21,1.18
		c-0.16,0.45-0.51,0.66-0.99,0.66C-49.11,1.49-50.14,1.49-51.17,1.49z"/>
</g>
<g>
	<path class="st0" d="M-74.87,112.9c-6.16,0-12.32,0-18.47,0c-0.97,0-1.3-0.39-1.25-1.36c0.13-2.64,0.74-5.15,2.01-7.47
		c1.31-2.4,3.11-4.3,5.67-5.4c1.17-0.5,2.4-0.71,3.66-0.71c5.59,0,11.19-0.01,16.78,0c3.61,0.01,6.3,1.74,8.37,4.56
		c1.67,2.28,2.54,4.87,2.87,7.66c0.06,0.48,0.08,0.95,0.12,1.43c0.07,0.85-0.31,1.28-1.16,1.28
		C-62.47,112.9-68.67,112.9-74.87,112.9z M-82.4,110.94c5.07,0,10.07,0,15.1,0c0-0.19,0-0.36,0-0.52c0-0.68-0.01-1.35,0.01-2.03
		c0.02-0.51,0.37-0.89,0.85-0.96c0.42-0.06,0.86,0.2,1.01,0.6c0.06,0.17,0.06,0.36,0.07,0.54c0.01,0.78,0,1.57,0,2.37
		c2.78,0,5.51,0,8.25,0c0.01-0.08,0.02-0.13,0.01-0.18c-0.26-2.35-0.93-4.57-2.25-6.56c-1.86-2.81-4.34-4.37-7.85-4.31
		c-5.32,0.1-10.65,0.03-15.97,0.02c-1.69,0-3.21,0.48-4.57,1.49c-2.19,1.63-3.5,3.86-4.26,6.43c-0.3,1-0.45,2.04-0.68,3.1
		c2.85,0,5.58,0,8.35,0c0-0.85,0.01-1.67,0-2.48c0-0.42,0.17-0.74,0.55-0.92c0.67-0.32,1.37,0.15,1.39,0.95
		C-82.39,109.28-82.4,110.1-82.4,110.94z"/>
	<path class="st0" d="M-74.81,114.83c12.2,0,24.41,0,36.61,0c0.17,0,0.34-0.01,0.51,0.01c0.49,0.04,0.84,0.39,0.89,0.86
		c0.04,0.49-0.26,0.92-0.75,1.03c-0.16,0.04-0.33,0.05-0.5,0.05c-24.53,0-49.06,0-73.6,0c-0.8,0-1.25-0.36-1.25-0.99
		c0.01-0.5,0.36-0.89,0.85-0.94c0.18-0.02,0.37-0.01,0.55-0.01C-99.27,114.83-87.04,114.83-74.81,114.83z"/>
	<path class="st0" d="M-64.1,80.38c-0.16,2.91-0.79,5.69-2.12,8.29c-0.96,1.88-2.17,3.55-3.9,4.81c-2.92,2.12-7.59,2.09-10.57-0.91
		c-2.15-2.15-3.46-4.76-4.22-7.67c-0.53-2.05-0.8-4.15-0.61-6.27c0.21-2.32,1.36-4.1,3.37-5.26c2.39-1.37,4.97-2.1,7.74-1.98
		c2.53,0.11,4.79,1.03,6.91,2.34c1.78,1.1,2.88,2.66,3.23,4.72C-64.15,79.08-64.15,79.73-64.1,80.38z M-66.11,80.52
		c0.1-1.31-0.07-2.42-0.67-3.44c-0.54-0.92-1.37-1.51-2.27-2.03c-4.03-2.37-8.07-2.25-12.1-0.02c-1.42,0.79-2.24,2.04-2.42,3.65
		c-0.18,1.64,0.02,3.26,0.35,4.86c0.57,2.73,1.68,5.21,3.57,7.3c2.49,2.76,6.39,2.71,8.76,0.77c1.24-1.02,2.14-2.3,2.88-3.71
		C-66.79,85.55-66.2,83.02-66.11,80.52z"/>
	<path class="st0" d="M-105.7,86.38c-0.04-2.66,1.04-4.61,3.46-5.79c1.99-0.97,4.07-1.49,6.28-1.24c2.2,0.25,4.19,1.09,5.9,2.5
		c1.27,1.05,1.89,2.49,1.91,4.12c0.03,2.67-0.51,5.22-1.76,7.6c-0.75,1.44-1.7,2.72-3.02,3.69c-2.57,1.9-6.68,1.87-9.33-1.27
		c-1.76-2.09-2.77-4.51-3.19-7.19C-105.58,88-105.62,87.19-105.7,86.38z M-96.97,96.59c1.66,0.03,2.96-0.68,3.98-1.91
		c2.12-2.54,2.92-5.54,2.89-8.79c-0.01-1.15-0.53-2.14-1.5-2.8c-3.41-2.33-6.71-2.48-10.35-0.45c-1.06,0.59-1.71,1.57-1.73,2.78
		c-0.02,1.23,0.05,2.48,0.26,3.69c0.38,2.2,1.3,4.19,2.83,5.84C-99.61,96.01-98.42,96.61-96.97,96.59z"/>
	<path class="st0" d="M-44.04,86.32c-0.06,3.02-0.77,5.81-2.39,8.33c-0.98,1.52-2.19,2.82-3.93,3.45c-2.78,1.01-5.73,0.38-7.92-2.26
		c-1.67-2.01-2.65-4.34-3.02-6.91c-0.17-1.15-0.25-2.33-0.18-3.49c0.11-1.76,1.02-3.14,2.49-4.1c1.78-1.17,3.71-1.97,5.86-2.04
		c2.54-0.08,4.9,0.58,6.94,2.09C-44.54,82.6-43.94,84.36-44.04,86.32z M-45.98,86.42c0.11-1.36-0.21-2.69-1.47-3.56
		c-1.72-1.18-3.66-1.72-5.74-1.61c-1.76,0.09-3.32,0.79-4.78,1.75c-0.9,0.59-1.44,1.45-1.58,2.53c-0.16,1.24,0.02,2.47,0.27,3.69
		c0.47,2.23,1.35,4.27,2.99,5.9c1.53,1.52,3.36,1.87,5.36,1.12c1.15-0.43,1.96-1.3,2.64-2.29C-46.75,91.71-46.06,89.21-45.98,86.42z
		"/>
	<path class="st0" d="M-110.87,110.94c2.05,0,4.08,0,6.17,0c0-0.62-0.01-1.23,0-1.84c0.01-0.63,0.52-1.04,1.14-0.94
		c0.48,0.07,0.79,0.45,0.8,0.99c0.01,0.59,0,1.18,0,1.82c0.19,0,0.34,0,0.49,0c1.51,0,3.01,0,4.52,0c0.68,0,1.09,0.36,1.09,0.96
		c0,0.59-0.42,0.98-1.08,0.98c-4.69,0-9.38,0-14.07,0c-0.71,0-1.11-0.4-1.08-1.1c0.13-3.22,1.07-6.15,3.29-8.55
		c1.65-1.78,3.68-2.71,6.15-2.69c3.01,0.03,6.03,0.01,9.04,0.01c0.61,0,1.02,0.28,1.12,0.76c0.14,0.65-0.31,1.18-1.02,1.18
		c-1.85,0-3.69,0-5.54,0c-1.11,0-2.23,0.04-3.34-0.01c-2.37-0.1-4.15,0.94-5.54,2.75c-1.22,1.59-1.86,3.42-2.14,5.39
		C-110.88,110.72-110.87,110.81-110.87,110.94z"/>
	<path class="st0" d="M-46.95,110.96c0-0.56,0.03-1.07-0.01-1.57c-0.07-0.89,0.51-1.25,0.99-1.25c0.47,0.01,1.03,0.37,0.96,1.23
		c-0.04,0.49,0,0.99,0,1.48c0,0.02,0.02,0.05,0.04,0.1c2.03,0,4.06,0,6.17,0c-0.11-0.57-0.18-1.11-0.31-1.64
		c-0.58-2.3-1.64-4.31-3.62-5.72c-1-0.72-2.12-1.07-3.36-1.07c-3.11,0.01-6.23,0-9.34,0c-0.42,0-0.74-0.16-0.93-0.54
		c-0.17-0.34-0.17-0.73,0.1-0.99c0.21-0.2,0.55-0.4,0.83-0.4c3.27-0.03,6.54-0.08,9.8,0.01c2.59,0.07,4.58,1.4,6.14,3.4
		c1.54,1.99,2.33,4.27,2.58,6.76c0.03,0.32,0.07,0.64,0.07,0.97c0.02,0.79-0.35,1.17-1.14,1.17c-1.42,0-2.85,0-4.27,0
		c-3.24,0-6.48,0-9.72,0c-0.62,0-1.03-0.31-1.1-0.82c-0.09-0.63,0.34-1.11,1.01-1.11c1.52,0,3.04,0,4.56,0
		C-47.31,110.96-47.16,110.96-46.95,110.96z"/>
	<path class="st0" d="M-74.85,120.62c-6.21,0-12.43,0-18.64,0c-0.81,0-1.3-0.54-1.06-1.22c0.09-0.26,0.36-0.47,0.6-0.64
		c0.14-0.1,0.38-0.08,0.57-0.08c12.34,0,24.68,0,37.02,0c0.71,0,1.08,0.23,1.21,0.75c0.15,0.6-0.25,1.15-0.86,1.19
		c-0.13,0.01-0.25,0-0.38,0C-62.54,120.62-68.69,120.62-74.85,120.62z"/>
</g>
<g>
	<path class="st0" d="M56.12,64.9c-4.04,0-8.09,0-12.13,0c-1.98,0-2.69-0.68-2.69-2.64c-0.01-8.19-0.01-16.38,0-24.56
		c0-1.89,0.7-2.6,2.59-2.6c8.24-0.01,16.47-0.02,24.71,0c1.86,0,2.54,0.73,2.54,2.65c0.01,8.19,0.01,16.38,0,24.56
		c0,1.88-0.72,2.59-2.59,2.6C64.4,64.91,60.26,64.9,56.12,64.9z M67,60.83c0-7.27,0-14.44,0-21.65c-7.26,0-14.39,0-21.56,0
		c0,7.26,0,14.44,0,21.65C52.68,60.83,59.82,60.83,67,60.83z"/>
	<path class="st0" d="M38.86,17.78c0,4.09,0,8.19,0,12.28c0,1.78-0.72,2.55-2.48,2.55c-8.33,0.01-16.67,0.01-25,0
		c-1.59,0-2.35-0.73-2.36-2.37C9,21.91,9,13.58,9.02,5.24c0-1.7,0.74-2.41,2.48-2.41c8.28-0.02,16.57-0.02,24.85,0
		c1.82,0,2.49,0.71,2.5,2.53C38.87,9.49,38.86,13.64,38.86,17.78z M13.13,28.57c7.28,0,14.44,0,21.67,0c0-7.27,0-14.44,0-21.66
		c-7.27,0-14.44,0-21.67,0C13.13,14.14,13.13,21.27,13.13,28.57z"/>
	<path class="st0" d="M23.84,61.65c-3.06,0-6.11,0.01-9.17,0c-1.68-0.01-2.42-0.73-2.42-2.44c-0.02-6.16-0.02-12.32,0-18.48
		c0.01-1.67,0.77-2.42,2.47-2.42c6.16-0.02,12.32-0.02,18.48,0c1.68,0.01,2.39,0.78,2.39,2.48c0.01,6.16,0.01,12.32,0,18.48
		c0,1.7-0.71,2.38-2.45,2.38C30.05,61.66,26.95,61.65,23.84,61.65z M16.36,57.61c5.18,0,10.17,0,15.21,0c0-5.13,0-10.14,0-15.2
		c-5.11,0-10.12,0-15.21,0C16.36,47.52,16.36,52.53,16.36,57.61z"/>
	<path class="st0" d="M56.16,29.38c-3.01,0-6.01,0.01-9.02,0c-1.91-0.01-2.62-0.69-2.62-2.54c-0.01-6.01-0.01-12.03,0-18.04
		c0-2.06,0.69-2.77,2.73-2.78c5.96-0.01,11.93-0.01,17.89,0c2.08,0,2.75,0.68,2.75,2.74c0.01,6.01,0.01,12.03,0,18.04
		c0,1.92-0.65,2.56-2.56,2.57C62.27,29.38,59.21,29.37,56.16,29.38z M63.82,25.4c0-5.11,0-10.16,0-15.25c-5.09,0-10.1,0-15.17,0
		c0,5.12,0,10.16,0,15.25C53.77,25.4,58.73,25.4,63.82,25.4z"/>
</g>
<g>
	<path class="st0" d="M304.45,30.28c0-7.73-0.01-15.46,0-23.19c0-2.52,0.38-2.9,2.95-2.9c8.71-0.01,17.43-0.05,26.14,0.06
		c1.11,0.01,2.45,0.61,3.27,1.38c3.28,3.07,6.46,6.25,9.54,9.53c0.72,0.77,1.26,2.06,1.27,3.11c0.09,11.73,0.06,23.47,0.05,35.2
		c0,2.69-0.24,2.94-2.86,2.94c-12.51,0.01-25.02,0-37.52,0c-2.61,0-2.84-0.24-2.84-2.94C304.44,45.74,304.45,38.01,304.45,30.28z
		 M307.75,53.18c12.35,0,24.46,0,36.56,0c0-11.58,0-22.99,0-34.64c-2.8,0-5.46,0.01-8.11,0c-2.68-0.01-2.86-0.2-2.87-2.88
		c-0.01-2.7,0-5.41,0-8.06c-8.79,0-17.18,0-25.58,0C307.75,22.85,307.75,37.94,307.75,53.18z M340.88,15.37
		c-1.33-1.44-2.92-3.16-4.29-4.64c0,1.29,0,2.93,0,4.64C338.35,15.37,339.95,15.37,340.88,15.37z"/>
	<path class="st0" d="M301.36,59.61c1,0,1.82,0,2.65,0c11.38,0,22.76,0,34.14,0c0.63,0,1.35-0.16,1.87,0.08
		c0.59,0.28,1.48,1.06,1.39,1.39c-0.18,0.63-0.89,1.19-1.51,1.58c-0.35,0.22-0.96,0.05-1.45,0.05c-12.43,0-24.86,0-37.3,0
		c-2.77,0-3.02-0.24-3.02-2.98c0-15.87,0-31.75,0-47.62c0-0.56-0.12-1.23,0.14-1.65c0.33-0.52,0.99-1.16,1.5-1.14
		c0.51,0.01,1.21,0.66,1.45,1.2c0.27,0.59,0.12,1.38,0.12,2.08c0,14.75,0,29.5,0,44.25C301.36,57.68,301.36,58.51,301.36,59.61z"/>
	<path class="st0" d="M326.1,47.45c-3.58,0-7.17-0.01-10.75,0c-1.23,0-2.51-0.26-2.27-1.71c0.1-0.62,1.47-1.45,2.27-1.46
		c7.16-0.11,14.33-0.06,21.5-0.07c1.16,0,2.23,0.22,2.23,1.62c0,1.38-1.07,1.62-2.23,1.62C333.27,47.44,329.68,47.45,326.1,47.45z"
		/>
	<path class="st0" d="M325.92,27.7c-3.58,0-7.16-0.02-10.74,0.01c-1.2,0.01-2.32-0.32-2.12-1.62c0.09-0.6,1.33-1.46,2.05-1.47
		c7.3-0.11,14.59-0.11,21.89,0.01c0.71,0.01,1.9,0.89,1.99,1.5c0.21,1.36-0.96,1.59-2.13,1.59C333.22,27.69,329.57,27.7,325.92,27.7
		z"/>
	<path class="st0" d="M325.93,37.5c-3.58,0-7.15-0.01-10.73,0.01c-1.16,0-2.34-0.25-2.12-1.6c0.1-0.59,1.33-1.4,2.06-1.41
		c7.29-0.11,14.59-0.11,21.88,0c0.71,0.01,1.41,0.93,2.11,1.43c-0.68,0.52-1.35,1.47-2.05,1.5C333.36,37.58,329.64,37.5,325.93,37.5
		z"/>
</g>
<g>
	<path class="st0" d="M400.24,16.57c1.75-0.73,3.2-1.33,4.79-1.99c0-0.71-0.03-1.51,0.01-2.31c0.06-1.14,0.65-1.85,1.83-1.86
		c2.77-0.03,5.54-0.02,8.31,0c1.18,0.01,1.79,0.7,1.85,1.85c0.04,0.76,0.01,1.53,0.01,2.28c1.41,0.62,2.75,1.24,4.12,1.76
		c0.27,0.1,0.78-0.11,1.03-0.34c2.52-2.34,2.54-2.35,4.99,0.1c1.45,1.45,2.9,2.89,4.34,4.34c1.2,1.21,1.29,2.07,0.05,3.14
		c-1.22,1.05-1.54,1.99-0.6,3.4c0.51,0.75,0.7,1.72,1.08,2.7c0.72,0,1.48-0.02,2.24,0c1.29,0.04,1.96,0.68,1.97,1.99
		c0.03,2.64,0.03,5.29,0,7.93c-0.01,1.45-0.68,2.22-2.13,2.05c-1.73-0.2-2.54,0.42-2.88,2.08c-0.17,0.85-0.71,1.63-1.26,2.83
		c0.51,0.4,1.21,0.84,1.77,1.41c0.89,0.91,0.88,1.78-0.01,2.69c-1.87,1.92-3.78,3.82-5.7,5.7c-0.96,0.94-1.81,0.93-2.81,0.04
		c-0.29-0.25-0.54-0.54-0.82-0.81c-0.27-0.26-0.55-0.52-0.8-0.75c-1.4,0.56-2.74,1.07-4.05,1.66c-0.26,0.12-0.48,0.52-0.53,0.82
		c-0.09,0.54-0.01,1.11-0.03,1.66c-0.05,1.23-0.68,1.92-1.9,1.93c-2.73,0.03-5.46,0.04-8.18,0c-1.32-0.02-2.04-0.74-1.89-2.16
		c0.17-1.64-0.37-2.47-1.99-2.81c-0.89-0.19-1.7-0.73-2.87-1.26c-0.41,0.51-0.84,1.16-1.39,1.69c-0.96,0.93-1.85,0.93-2.8,0.01
		c-1.92-1.88-3.82-3.77-5.7-5.7c-0.93-0.95-0.9-1.8,0.03-2.79c0.5-0.52,1.06-0.98,1.58-1.45c-0.6-1.51-1.13-2.88-1.72-4.23
		c-0.1-0.23-0.46-0.45-0.72-0.49c-0.5-0.08-1.02-0.02-1.53-0.03c-1.53-0.03-2.15-0.64-2.16-2.2c-0.02-2.56-0.02-5.11,0-7.67
		c0.01-1.52,0.66-2.12,2.21-2.15c0.13,0,0.26-0.02,0.38,0c1.25,0.24,2.03-0.19,2.2-1.52c0.02-0.16,0.08-0.34,0.17-0.48
		c1.05-1.65,1.3-3.1-0.59-4.47c-0.86-0.63-0.68-1.7,0.09-2.48c1.92-1.94,3.84-3.88,5.79-5.78c0.9-0.88,1.78-0.87,2.71-0.01
		C399.31,15.42,399.77,16.04,400.24,16.57z M434.63,31.24c-1.4,0-2.66,0-3.7,0c-0.97-2.3-1.85-4.4-2.84-6.76
		c0.81-0.69,1.75-1.48,2.58-2.19c-2.17-2.14-4.21-4.14-6.51-6.4c-0.69,0.85-1.48,1.83-2.11,2.6c-2.35-0.97-4.42-1.83-6.67-2.77
		c0-1.1,0-2.36,0-3.64c-2.97,0-5.8,0-8.77,0c0,1.35,0,2.61,0,3.64c-2.28,0.96-4.34,1.83-6.75,2.84c-0.63-0.79-1.43-1.79-2.16-2.7
		c-2.22,2.21-4.22,4.22-6.43,6.43c0.92,0.73,1.91,1.53,2.69,2.15c-1.04,2.47-1.92,4.57-2.87,6.85c-1.1,0-2.36,0-3.66,0
		c0,2.95,0,5.75,0,8.74c1.06,0,2.08-0.06,3.08,0.03c0.34,0.03,0.83,0.35,0.96,0.66c0.81,1.9,1.54,3.84,2.47,6.19
		c-0.74,0.59-1.73,1.38-2.6,2.06c2.2,2.19,4.21,4.18,6.45,6.41c0.71-0.88,1.51-1.87,2.14-2.64c2.4,1,4.5,1.88,6.78,2.84
		c0,1.13,0,2.38,0,3.63c2.95,0,5.75,0,8.69,0c0-1.33,0-2.59,0-3.66c2.29-0.96,4.39-1.84,6.88-2.88c0.66,0.78,1.48,1.74,2.12,2.49
		c2.1-2.1,4.11-4.09,6.38-6.36c-0.87-0.69-1.87-1.48-2.64-2.08c0.99-2.38,1.85-4.45,2.81-6.76c1.09,0,2.38,0,3.68,0
		C434.63,37,434.63,34.23,434.63,31.24z"/>
	<path class="st0" d="M397.33,35.52c0.03-7.57,6.17-13.61,13.82-13.59c7.56,0.03,13.62,6.18,13.59,13.82
		c-0.03,7.56-6.18,13.62-13.82,13.59C403.35,49.32,397.3,43.17,397.33,35.52z M423.15,35.59c-0.04-6.62-5.62-12.14-12.2-12.07
		c-6.58,0.07-12.03,5.55-12.04,12.1c-0.01,6.59,5.54,12.15,12.14,12.14C417.65,47.75,423.19,42.17,423.15,35.59z"/>
</g>
</svg>
