<?xml version="1.0" encoding="utf-8"?>
<!-- Generator: Adobe Illustrator 23.0.1, SVG Export Plug-In . SVG Version: 6.00 Build 0)  -->
<svg version="1.1" id="Layer_1" xmlns="http://www.w3.org/2000/svg" xmlns:xlink="http://www.w3.org/1999/xlink" x="0px" y="0px"
	 viewBox="0 0 80.14 67.71" style="enable-background:new 0 0 80.14 67.71;" xml:space="preserve">
<style type="text/css">
	.st0{fill:#FFFFFF;}
</style>
<g>
	<path class="st0" d="M21.44,29.96c0-7.73-0.01-15.46,0-23.19c0-2.52,0.38-2.9,2.95-2.9c8.71-0.01,17.43-0.05,26.14,0.06
		c1.11,0.01,2.45,0.61,3.27,1.38c3.28,3.07,6.46,6.25,9.54,9.53c0.72,0.77,1.26,2.06,1.27,3.11c0.09,11.73,0.06,23.47,0.05,35.2
		c0,2.69-0.24,2.94-2.86,2.94c-12.51,0.01-25.02,0-37.52,0c-2.61,0-2.84-0.24-2.84-2.94C21.44,45.42,21.44,37.69,21.44,29.96z
		 M24.74,52.86c12.35,0,24.46,0,36.56,0c0-11.58,0-22.99,0-34.64c-2.8,0-5.46,0.01-8.11,0c-2.68-0.01-2.86-0.2-2.87-2.88
		c-0.01-2.7,0-5.41,0-8.06c-8.79,0-17.18,0-25.58,0C24.74,22.53,24.74,37.62,24.74,52.86z M57.87,15.05
		c-1.33-1.44-2.92-3.16-4.29-4.64c0,1.29,0,2.93,0,4.64C55.35,15.05,56.94,15.05,57.87,15.05z"/>
	<path class="st0" d="M18.35,59.28c1,0,1.82,0,2.65,0c11.38,0,22.76,0,34.14,0c0.63,0,1.35-0.16,1.87,0.08
		c0.59,0.28,1.48,1.06,1.39,1.39c-0.18,0.63-0.89,1.19-1.51,1.58c-0.35,0.22-0.96,0.05-1.45,0.05c-12.43,0-24.86,0-37.3,0
		c-2.77,0-3.02-0.24-3.02-2.98c0-15.87,0-31.75,0-47.62c0-0.56-0.12-1.23,0.14-1.65c0.33-0.52,0.99-1.16,1.5-1.14
		c0.51,0.01,1.21,0.66,1.45,1.2c0.27,0.59,0.12,1.38,0.12,2.08c0,14.75,0,29.5,0,44.25C18.35,57.35,18.35,58.19,18.35,59.28z"/>
	<path class="st0" d="M43.09,47.12c-3.58,0-7.17-0.01-10.75,0c-1.23,0-2.51-0.26-2.27-1.71c0.1-0.62,1.47-1.45,2.27-1.46
		c7.16-0.11,14.33-0.06,21.5-0.07c1.16,0,2.23,0.22,2.23,1.62c0,1.38-1.07,1.62-2.23,1.62C50.26,47.12,46.67,47.12,43.09,47.12z"/>
	<path class="st0" d="M42.92,27.38c-3.58,0-7.16-0.02-10.74,0.01c-1.2,0.01-2.32-0.32-2.12-1.62c0.09-0.6,1.33-1.46,2.05-1.47
		c7.3-0.11,14.59-0.11,21.89,0.01c0.71,0.01,1.9,0.89,1.99,1.5c0.21,1.36-0.96,1.59-2.13,1.59C50.21,27.36,46.56,27.38,42.92,27.38z
		"/>
	<path class="st0" d="M42.92,37.18c-3.58,0-7.15-0.01-10.73,0.01c-1.16,0-2.34-0.25-2.12-1.6c0.09-0.59,1.33-1.4,2.06-1.41
		c7.29-0.11,14.59-0.11,21.88,0c0.71,0.01,1.41,0.93,2.11,1.43c-0.68,0.52-1.35,1.47-2.05,1.5C50.36,37.26,46.63,37.18,42.92,37.18z
		"/>
</g>
<g>
	<path class="st0" d="M306.7,13.68c1.75-0.73,3.2-1.33,4.79-1.99c0-0.71-0.03-1.51,0.01-2.31c0.06-1.14,0.65-1.85,1.83-1.86
		c2.77-0.03,5.54-0.02,8.31,0c1.18,0.01,1.79,0.7,1.85,1.85c0.04,0.76,0.01,1.53,0.01,2.28c1.41,0.62,2.75,1.24,4.12,1.76
		c0.27,0.1,0.78-0.11,1.03-0.34c2.52-2.34,2.54-2.35,4.99,0.1c1.45,1.45,2.9,2.89,4.34,4.34c1.2,1.21,1.29,2.07,0.05,3.14
		c-1.22,1.05-1.54,1.99-0.6,3.4c0.51,0.75,0.7,1.72,1.08,2.7c0.72,0,1.48-0.02,2.24,0c1.29,0.04,1.96,0.68,1.97,1.99
		c0.03,2.64,0.03,5.29,0,7.93c-0.01,1.45-0.68,2.22-2.13,2.05c-1.73-0.2-2.54,0.42-2.88,2.08c-0.17,0.85-0.71,1.63-1.26,2.83
		c0.51,0.4,1.21,0.84,1.77,1.41c0.89,0.91,0.88,1.78-0.01,2.69c-1.87,1.92-3.78,3.82-5.7,5.7c-0.96,0.94-1.81,0.93-2.81,0.04
		c-0.29-0.25-0.54-0.54-0.82-0.81c-0.27-0.26-0.55-0.52-0.8-0.75c-1.4,0.56-2.74,1.07-4.05,1.66c-0.26,0.12-0.48,0.52-0.53,0.82
		c-0.09,0.54-0.01,1.11-0.03,1.66c-0.05,1.23-0.68,1.92-1.9,1.93c-2.73,0.03-5.46,0.04-8.18,0c-1.32-0.02-2.04-0.74-1.89-2.16
		c0.17-1.64-0.37-2.47-1.99-2.81c-0.89-0.19-1.7-0.73-2.87-1.26c-0.41,0.51-0.84,1.16-1.39,1.69c-0.96,0.93-1.85,0.93-2.8,0.01
		c-1.92-1.88-3.82-3.77-5.7-5.7c-0.93-0.95-0.9-1.8,0.03-2.79c0.5-0.52,1.06-0.98,1.58-1.45c-0.6-1.51-1.13-2.88-1.72-4.23
		c-0.1-0.23-0.46-0.45-0.72-0.49c-0.5-0.08-1.02-0.02-1.53-0.03c-1.53-0.03-2.15-0.64-2.16-2.2c-0.02-2.56-0.02-5.11,0-7.67
		c0.01-1.52,0.66-2.12,2.21-2.15c0.13,0,0.26-0.02,0.38,0c1.25,0.24,2.03-0.19,2.2-1.52c0.02-0.16,0.08-0.34,0.17-0.48
		c1.05-1.65,1.3-3.1-0.59-4.47c-0.86-0.63-0.68-1.7,0.09-2.48c1.92-1.94,3.84-3.88,5.79-5.78c0.9-0.88,1.78-0.87,2.71-0.01
		C305.78,12.53,306.24,13.15,306.7,13.68z M341.1,28.35c-1.4,0-2.66,0-3.7,0c-0.97-2.3-1.85-4.4-2.84-6.76
		c0.81-0.69,1.75-1.48,2.58-2.19c-2.17-2.14-4.21-4.14-6.51-6.4c-0.69,0.85-1.48,1.83-2.11,2.6c-2.35-0.97-4.42-1.83-6.67-2.77
		c0-1.1,0-2.36,0-3.64c-2.97,0-5.8,0-8.77,0c0,1.35,0,2.61,0,3.64c-2.28,0.96-4.34,1.83-6.75,2.84c-0.63-0.79-1.43-1.79-2.16-2.7
		c-2.22,2.21-4.22,4.22-6.43,6.43c0.92,0.73,1.91,1.53,2.69,2.15c-1.04,2.47-1.92,4.57-2.87,6.85c-1.1,0-2.36,0-3.66,0
		c0,2.95,0,5.75,0,8.74c1.06,0,2.08-0.06,3.08,0.03c0.34,0.03,0.83,0.35,0.96,0.66c0.81,1.9,1.54,3.84,2.47,6.19
		c-0.74,0.59-1.73,1.38-2.6,2.06c2.2,2.19,4.21,4.18,6.45,6.41c0.71-0.88,1.51-1.87,2.14-2.64c2.4,1,4.5,1.88,6.78,2.84
		c0,1.13,0,2.38,0,3.63c2.95,0,5.75,0,8.69,0c0-1.33,0-2.59,0-3.66c2.29-0.96,4.39-1.84,6.88-2.88c0.66,0.78,1.48,1.74,2.12,2.49
		c2.1-2.1,4.11-4.09,6.38-6.36c-0.87-0.69-1.87-1.48-2.64-2.08c0.99-2.38,1.85-4.45,2.81-6.76c1.09,0,2.38,0,3.68,0
		C341.1,34.1,341.1,31.34,341.1,28.35z"/>
	<path class="st0" d="M303.79,32.63c0.03-7.57,6.17-13.61,13.82-13.59c7.56,0.03,13.62,6.18,13.59,13.82
		c-0.03,7.56-6.18,13.62-13.82,13.59C309.81,46.42,303.76,40.27,303.79,32.63z M329.61,32.7c-0.04-6.62-5.62-12.14-12.2-12.07
		c-6.58,0.07-12.03,5.55-12.04,12.1c-0.01,6.59,5.54,12.15,12.14,12.14C324.11,44.86,329.65,39.28,329.61,32.7z"/>
</g>
</svg>
