<?xml version="1.0" encoding="utf-8"?>
<!-- Generator: Adobe Illustrator 23.0.1, SVG Export Plug-In . SVG Version: 6.00 Build 0)  -->
<svg version="1.1" id="Layer_1" xmlns="http://www.w3.org/2000/svg" xmlns:xlink="http://www.w3.org/1999/xlink" x="0px" y="0px"
	 viewBox="0 0 80.14 67.71" style="enable-background:new 0 0 80.14 67.71;" xml:space="preserve">
<style type="text/css">
	.st0{fill:#FFFFFF;}
</style>
<g>
	<path class="st0" d="M27.85,12.25c1.98-0.82,3.62-1.5,5.42-2.25c0-0.8-0.04-1.71,0.01-2.62c0.06-1.3,0.74-2.09,2.08-2.11
		c3.14-0.03,6.28-0.03,9.41,0c1.34,0.01,2.02,0.8,2.09,2.09c0.05,0.86,0.01,1.73,0.01,2.59c1.6,0.7,3.11,1.41,4.67,2
		c0.3,0.11,0.88-0.13,1.17-0.39c2.86-2.65,2.88-2.66,5.65,0.11c1.64,1.64,3.29,3.27,4.91,4.92c1.35,1.37,1.46,2.35,0.05,3.56
		c-1.39,1.19-1.75,2.25-0.68,3.85c0.57,0.85,0.8,1.95,1.23,3.06c0.82,0,1.68-0.02,2.54,0.01c1.47,0.05,2.22,0.77,2.23,2.25
		c0.03,2.99,0.03,5.99,0,8.98c-0.02,1.64-0.77,2.51-2.41,2.32c-1.96-0.22-2.88,0.47-3.26,2.35c-0.2,0.96-0.8,1.84-1.43,3.21
		c0.58,0.45,1.37,0.95,2.01,1.6c1.01,1.03,1,2.02-0.01,3.05c-2.12,2.18-4.28,4.33-6.45,6.45c-1.09,1.07-2.05,1.05-3.18,0.05
		C53.6,57.03,53.31,56.7,53,56.4c-0.31-0.3-0.63-0.59-0.9-0.85c-1.58,0.64-3.11,1.22-4.59,1.88c-0.29,0.13-0.55,0.59-0.6,0.93
		c-0.1,0.61-0.01,1.25-0.03,1.88c-0.06,1.4-0.77,2.17-2.15,2.19c-3.09,0.04-6.18,0.04-9.27,0c-1.49-0.02-2.31-0.83-2.14-2.44
		c0.19-1.85-0.42-2.8-2.26-3.19c-1.01-0.22-1.93-0.83-3.25-1.42c-0.47,0.58-0.95,1.31-1.57,1.91c-1.09,1.06-2.09,1.06-3.17,0.01
		c-2.18-2.12-4.33-4.27-6.45-6.45c-1.05-1.08-1.02-2.04,0.04-3.17c0.56-0.59,1.2-1.11,1.78-1.64c-0.68-1.71-1.28-3.27-1.95-4.8
		c-0.12-0.26-0.52-0.51-0.82-0.56c-0.57-0.09-1.16-0.02-1.73-0.03c-1.73-0.03-2.43-0.73-2.45-2.49c-0.02-2.9-0.02-5.79,0-8.69
		c0.01-1.72,0.75-2.4,2.5-2.43c0.14,0,0.29-0.02,0.43,0c1.42,0.27,2.3-0.21,2.49-1.72c0.02-0.19,0.09-0.38,0.19-0.54
		c1.19-1.87,1.47-3.51-0.67-5.06c-0.98-0.71-0.77-1.92,0.11-2.81c2.17-2.2,4.35-4.39,6.56-6.55c1.02-1,2.02-0.99,3.06-0.01
		C26.8,10.94,27.32,11.65,27.85,12.25z M66.81,28.87c-1.58,0-3.01,0-4.19,0c-1.1-2.61-2.1-4.99-3.22-7.66
		c0.92-0.78,1.99-1.68,2.93-2.48c-2.46-2.42-4.77-4.69-7.37-7.25c-0.78,0.96-1.68,2.07-2.39,2.95c-2.66-1.1-5-2.08-7.55-3.13
		c0-1.24,0-2.67,0-4.13c-3.37,0-6.57,0-9.93,0c0,1.53,0,2.96,0,4.12c-2.58,1.09-4.92,2.07-7.64,3.22c-0.72-0.9-1.62-2.02-2.45-3.06
		c-2.51,2.51-4.78,4.78-7.29,7.28c1.04,0.83,2.16,1.73,3.05,2.44c-1.17,2.8-2.17,5.18-3.25,7.76c-1.25,0-2.68,0-4.15,0
		c0,3.34,0,6.51,0,9.9c1.21,0,2.35-0.06,3.49,0.04c0.39,0.03,0.94,0.39,1.08,0.74c0.92,2.16,1.75,4.35,2.79,7.01
		c-0.84,0.66-1.96,1.56-2.94,2.34c2.49,2.48,4.77,4.74,7.31,7.26c0.8-0.99,1.71-2.11,2.42-2.99c2.72,1.14,5.1,2.13,7.68,3.21
		c0,1.28,0,2.7,0,4.11c3.34,0,6.51,0,9.84,0c0-1.51,0-2.94,0-4.15c2.6-1.09,4.97-2.08,7.79-3.26c0.75,0.89,1.68,1.97,2.4,2.82
		c2.38-2.37,4.65-4.64,7.23-7.2c-0.99-0.78-2.12-1.67-2.99-2.36c1.12-2.7,2.09-5.04,3.18-7.65c1.24,0,2.7,0,4.17,0
		C66.81,35.39,66.81,32.26,66.81,28.87z"/>
	<path class="st0" d="M24.55,33.72c0.03-8.57,6.99-15.42,15.65-15.39c8.57,0.03,15.42,7,15.39,15.65c-0.03,8.57-7,15.42-15.65,15.39
		C31.37,49.34,24.52,42.37,24.55,33.72z M53.8,33.8c-0.05-7.49-6.37-13.75-13.82-13.67c-7.45,0.07-13.63,6.28-13.64,13.71
		c-0.01,7.47,6.28,13.76,13.75,13.75C47.56,47.57,53.85,41.25,53.8,33.8z"/>
</g>
</svg>
